<svg height="31.94017mm" viewBox="0 0 118.19984 31.94017" width="118.19984mm" xmlns="http://www.w3.org/2000/svg"><g transform="translate(-80.919999 -86.974139)"><path d="m106.74856 118.24596v-5.66236h-11.118007l3.338989 5.66236zm0 0" fill="#59cf4a"/><path d="m106.74856 106.31904v-5.66236h-18.15289l3.340365 5.66236zm0 0" fill="#579e26"/><path d="m106.74856 93.304846v-5.662359h-25.828561l3.340364 5.662359zm0 0" fill="#457538"/><path d="m113.74762 87.642487h19.38486v5.63342h-13.41658v7.400063h11.50662v5.6348h-11.50662v11.93519h-5.96828zm0 0"/><path d="m153.49851 118.91431c-8.92831 0-15.70826-7.16167-15.70826-15.94528 0-8.833227 7.01835-15.994891 15.70826-15.994891 5.15662 0 8.73676 1.623328 11.31507 4.201636l-3.96324 4.535124c-1.8135-1.575096-4.24849-2.76848-7.3036-2.76848-5.25308 0-9.40649 4.486893-9.40649 10.026611 0 5.4901 4.15341 9.97699 9.78821 9.97699 1.86172 0 3.62837-.42995 5.15661-1.19338v-8.64168h5.96691v12.4616c-2.72162 2.05328-6.54017 3.34175-11.55347 3.34175"/><path d="m185.27469 97.287375 6.5884-9.644888h6.73172l-9.97838 14.705043 10.50341 15.89843h-7.44692l-7.06658-10.59849-7.25675 10.59849h-6.68486l10.59987-15.6118-10.02661-14.991673h7.6867zm0 0"/><g fill="#59cf4a" stroke-width=".31701" transform="matrix(.26458333 0 0 .26458333 80.919999 86.974139)"><path d="m68.085696 117.53161c-.169224-.21794-2.778033-4.60458-5.797353-9.74807s-5.696504-9.67278-5.949298-10.065081l-.459626-.713273h20.800641 20.800641v10.461344 10.46134h-14.543662c-11.259494 0-14.613142-.0895-14.851343-.39626z"/><path d="m68.082682 117.53161c-.170882-.21794-2.780945-4.60458-5.800142-9.74807-3.019196-5.14349-5.695024-9.67278-5.946284-10.065081l-.456837-.713273h20.800641 20.800641v10.461344 10.46134h-14.543662c-11.257887 0-14.613856-.0895-14.854357-.39626z"/></g></g></svg>