<svg xmlns="http://www.w3.org/2000/svg" viewBox="0 0 105.95 19.81"><defs><style>.cls-1{fill:#0e0e11;}</style></defs><g id="Layer_2" data-name="Layer 2"><g id="Layer_1-2" data-name="Layer 1"><path id="path3356" class="cls-1" d="M100.33,17a2.81,2.81,0,1,1,2.81,2.81A2.81,2.81,0,0,1,100.33,17"/><path id="path3360" class="cls-1" d="M10.78,9.56a6.32,6.32,0,0,0-1-3.95A3.78,3.78,0,0,0,6.61,4.32H5.12V15.19H6.26a4.11,4.11,0,0,0,3.43-1.38,6.88,6.88,0,0,0,1.09-4.25m5.31-.18q0,4.86-2.61,7.49T6.13,19.5H0V.08H6.56q4.57,0,7.05,2.39c1.66,1.6,2.48,3.9,2.48,6.91"/><path id="path3362" class="cls-1" d="M33.08,19.5H38V0H33.08Z"/><path id="path3366" class="cls-1" d="M44.82,12.23a6.47,6.47,0,0,0,.49,2.84,1.68,1.68,0,0,0,1.63,1,1.65,1.65,0,0,0,1.61-1A6.84,6.84,0,0,0,49,12.23a6.4,6.4,0,0,0-.47-2.8,1.85,1.85,0,0,0-3.23,0,6.23,6.23,0,0,0-.49,2.81m9.16,0a7.81,7.81,0,0,1-1.86,5.54,6.85,6.85,0,0,1-5.23,2,6.67,6.67,0,0,1-5.12-2,7.71,7.71,0,0,1-1.91-5.49,7.69,7.69,0,0,1,1.87-5.51,6.89,6.89,0,0,1,5.24-2,7.25,7.25,0,0,1,3.68.91,6.09,6.09,0,0,1,2.47,2.6,8.69,8.69,0,0,1,.86,4"/><path id="path3370" class="cls-1" d="M55.92,19.5H60.8V5H55.92Z"/><path id="path3372" class="cls-1" d="M55.92,3.26H60.8V0H55.92Z"/><path id="path3376" class="cls-1" d="M70.69,15.8a6.9,6.9,0,0,0,2.36-.5V19a9.17,9.17,0,0,1-1.88.62,10.63,10.63,0,0,1-2.09.18,4.49,4.49,0,0,1-3.54-1.23,5.57,5.57,0,0,1-1.09-3.79v-6H62.74V5h1.71V1.32L69.37.46V5h3.11V8.76H69.37V14.4c0,.94.44,1.4,1.32,1.4"/><path id="path3380" class="cls-1" d="M82,15.8a6.94,6.94,0,0,0,2.36-.5V19a9.37,9.37,0,0,1-1.88.62,10.71,10.71,0,0,1-2.09.18,4.53,4.53,0,0,1-3.55-1.23,5.62,5.62,0,0,1-1.08-3.79v-6H74V5h1.71V1.26l4.92-.8V5h3.11V8.76H80.67V14.4c0,.94.44,1.4,1.32,1.4"/><path id="path3384" class="cls-1" d="M90.51,10.46a2.59,2.59,0,0,1,.68-1.74,2,2,0,0,1,1.44-.56,1.88,1.88,0,0,1,1.49.63,2.47,2.47,0,0,1,.58,1.67Zm6.88-4a7.88,7.88,0,0,0-10.1.25,8,8,0,0,0-1.81,5.63,7.35,7.35,0,0,0,2,5.48,7.49,7.49,0,0,0,5.49,1.92,15.5,15.5,0,0,0,2.92-.23,8.39,8.39,0,0,0,2.36-.82l-.75-3.26a10.65,10.65,0,0,1-1.58.51,10.32,10.32,0,0,1-2.37.25,3.31,3.31,0,0,1-2.22-.69,2.47,2.47,0,0,1-.87-1.9h8.72V11.38a6.55,6.55,0,0,0-1.74-4.91"/><path id="path3388" class="cls-1" d="M22.57,10.46a2.69,2.69,0,0,1,.68-1.74,2,2,0,0,1,1.44-.56,1.9,1.9,0,0,1,1.5.63,2.52,2.52,0,0,1,.58,1.67Zm6.89-4a6.76,6.76,0,0,0-4.94-1.71,6.68,6.68,0,0,0-5.17,2,8.05,8.05,0,0,0-1.81,5.63,7.32,7.32,0,0,0,2,5.48A7.48,7.48,0,0,0,25,19.75a15.43,15.43,0,0,0,2.92-.23,8.28,8.28,0,0,0,2.36-.82l-.75-3.26a9.78,9.78,0,0,1-3.94.76,3.34,3.34,0,0,1-2.23-.69,2.5,2.5,0,0,1-.87-1.9H31.2V11.38a6.55,6.55,0,0,0-1.74-4.91"/></g></g></svg>