<svg height="62.182011" viewBox="0 0 76.729171 16.452323" width="290.00003" xmlns="http://www.w3.org/2000/svg" xmlns:xlink="http://www.w3.org/1999/xlink"><clipPath id="a"><path d="m0 0h792v612h-792z"/></clipPath><clipPath id="b"><path d="m0 0h792v612h-792z"/></clipPath><g transform="translate(-59.153271 -201.083366)"><g fill="#00538e"><g clip-path="url(#b)" transform="matrix(.35277777 0 0 -.35277777 -42.182144 300.15395)"><path d="m0 0c0-.834-.045-1.408-.201-1.649-.13-.22-.394-.306-.922-.33l-1.055-.066v-.659c1.145.043 2.178.064 3.256.064 1.011 0 2.044-.021 3.19-.064v.659l-1.058.066c-.525.024-.792.11-.922.33-.155.241-.199.815-.199 1.649v9.307c0 .836.021 1.538.089 2.199h3.41c.659 0 .835-.198.878-.726l.087-1.738h.684c0 1.19.043 2.397.153 3.542-1.584 0-3.167-.066-4.751-.066h-3.19c-1.584 0-3.168.066-4.752.066.112-1.145.154-2.352.154-3.542h.682l.088 1.738c.045.528.223.726.881.726h3.41c.066-.661.088-1.363.088-2.199z" transform="translate(299.3941 260.6167)"/><path d="m0 0c0-1.231-.263-1.474-1.979-1.474v-.615c.924.022 1.848.064 2.772.064 1.034 0 2.09-.042 3.08-.064v.615c-1.585 0-1.89.11-1.89 1.474v3.277c.877.024 1.801.043 2.834.043 1.034 0 1.959-.019 2.839-.043v-3.277c0-1.364-.308-1.474-1.892-1.474v-.615c.992.022 2.044.064 3.079.064.925 0 1.848-.042 2.772-.064v.615c-1.715 0-1.978.243-1.978 1.474v6.731c0 1.3.307 1.341 2.067 1.341v.617c-.903-.022-2.067-.065-2.927-.065-1.011 0-1.869.043-3.013.065v-.617c1.65 0 1.892-.041 1.892-1.341v-2.663c-.88-.019-1.805-.041-2.839-.041-1.033 0-1.957.022-2.834.041v2.663c0 1.3.24 1.341 1.89 1.341v.617c-1.145-.022-2.002-.065-3.013-.065-.86 0-2.026.043-2.927.065v-.617c1.762 0 2.067-.041 2.067-1.341z" transform="translate(309.5666 260.0019)"/><path d="m0 0c0-1.563-.132-1.827-1.892-1.827v-.615c1.078.022 1.85.064 2.838.064 1.056 0 2.133-.064 3.408-.064 1.035 0 2.114.022 2.994.109.087.859.152 1.869.174 2.993h-.571c-.11-.728-.263-1.386-.483-1.981-.529-.153-1.498-.263-2.464-.263-.748 0-1.342.042-1.937.088-.065 1.032-.089 2.484-.089 4.245.354.022.707.043 1.255.043 1.913 0 2.09-.262 2.09-1.648h.661c-.023.615-.045 1.362-.045 2.046 0 .592.022 1.277.045 1.869h-.661c0-1.233-.177-1.475-1.231-1.475-1.013 0-1.605.021-2.114.045 0 1.275-.02 2.707.047 3.85.395.066.857.133 1.384.133 1.056 0 2.113-.067 2.969-.222.132-.461.154-.923.221-1.756h.617c.044 1.054.132 1.889.263 2.637-.703.11-1.782.175-2.662.175-.792 0-1.606-.044-2.397-.086-.793-.045-1.585-.089-2.398-.089-.769 0-1.385.044-2.067.065v-.594c1.649 0 2.045-.088 2.045-1.538z" transform="translate(325.2247 260.3546)"/><path d="m0 0-.196.22c-1.013-.747-2.883-1.318-4.465-1.318-4.357 0-7.238 2.813-7.238 7.172 0 3.739 2.177 6.752 6.313 6.752.814 0 1.76-.131 2.462-.373 1.012-.375 1.893-.749 1.893-1.366v-1.581h.681c0 1.141.2 2.308.419 3.344-1.056.371-3.036.899-5.082.899-2.463 0-4.708-.748-6.356-2.112-1.694-1.384-2.684-3.388-2.684-5.917 0-4.994 3.563-8.006 8.841-8.006 1.343 0 3.521.417 4.799 1.188z" transform="translate(354.7527 259.8248)"/><path d="m0 0 1.848-4.314c-.727-.02-1.298-.043-2.003-.043-.638 0-1.21.023-1.78.043zm.11 2.374-3.652-8.028c-.989-2.243-1.342-2.377-2.33-2.377v-.615c.988.022 1.493.064 2.153.064.792 0 1.562-.042 2.287-.064v.615c-1.12 0-1.626.175-1.626.791 0 .814.549 1.539.748 2.004.748.02 1.496.041 2.222.041.77 0 1.518-.021 2.264-.041.286-.617.88-1.718.88-2.199 0-.421-.33-.596-1.626-.596v-.615c.967.022 1.782.064 2.704.064.946 0 2.265-.042 2.618-.064v.615c-.835 0-1.298.088-1.98 1.714l-3.828 8.691z" transform="translate(360.4781 266.5588)"/><path d="m0 0c1.013.022 2.005.064 2.994.064 1.604 0 2.376-.042 2.903-.064v.615c-1.673 0-1.937.044-1.937 1.077v8.14c.396.176.926.222 1.41.222 1.582 0 2.333-.638 2.333-2.068 0-1.322-1.013-2.288-2.333-2.288-.309 0-.55.021-.793.043l-.088-.351 4.398-5.326h2.729v.551c-.681 0-.858.175-1.297.705l-3.367 4.115c1.056.395 2.948.921 2.948 2.968 0 1.828-1.451 2.375-3.41 2.375-1.165 0-2.442-.065-3.585-.065-1.056 0-1.958.065-2.905.065v-.616c1.805 0 1.98-.154 1.98-1.298v-6.906c0-1.299-.396-1.343-1.98-1.343z" transform="translate(368.3 257.9125)"/><path d="m0 0c0-1.452-.309-1.583-1.277-1.738v-.615c.772.022 1.364.065 2.288.065 1.032 0 1.671-.065 3.783-.065.968 0 1.98.022 2.705.065.066 1.035.178 1.959.374 2.905h-.659l-.44-1.784c-.616-.217-1.848-.306-3.212-.306-.615 0-1.056.021-1.495.044-.066.703-.089 1.297-.089 2.046v5.829c0 1.343.484 1.363 1.893 1.363v.617c-1.211-.022-2.287-.066-3.038-.066-1.01 0-1.802.044-2.813.066v-.617c1.627 0 1.98-.02 1.98-1.032z" transform="translate(383.6482 260.2653)"/><path d="m0 0c.96.022 1.747.064 2.886.064.79 0 1.934-.042 2.904-.064v.615c-1.321 0-1.894.044-1.894 1.54v2.267c1.231 2.178 2.62 4.511 3.915 5.984v.307h-1.494c-.792-1.518-2.379-4.335-2.859-5.192l-1.973 3.652c-.504.947-1.07 1.54-1.638 1.739-.611-.179-1.579-.265-2.261-.375v-.616c.792 0 1.036-.131 1.954-1.429.592-.836 1.399-2.158 2.383-3.937v-2.884c0-.725-.308-1.056-1.923-1.056z" transform="translate(393.8405 257.9125)"/><path d="m0 0c0-1.452-.306-1.583-1.277-1.738v-.615c.772.022 1.366.065 2.289.065 1.033 0 1.674-.065 3.784-.065.969 0 1.979.022 2.707.065.068 1.035.174 1.959.376 2.905h-.663l-.441-1.784c-.613-.217-1.845-.306-3.209-.306-.619 0-1.06.021-1.5.044-.065.703-.087 1.297-.087 2.046v5.829c0 1.343.485 1.363 1.896 1.363v.617c-1.214-.022-2.291-.066-3.038-.066-1.013 0-1.804.044-2.816.066v-.617c1.628 0 1.979-.02 1.979-1.032z" transform="translate(405.2895 260.2653)"/><path d="m0 0c0-1.563-.132-1.827-1.893-1.827v-.615c1.078.022 1.846.064 2.839.064 1.057 0 2.132-.064 3.408-.064 1.034 0 2.113.022 2.994.109.087.859.152 1.869.173 2.993h-.569c-.112-.728-.264-1.386-.485-1.981-.527-.153-1.495-.263-2.464-.263-.747 0-1.343.042-1.94.088-.06 1.032-.085 2.484-.085 4.245.35.022.706.043 1.254.043 1.917 0 2.092-.262 2.092-1.648h.658c-.021.615-.042 1.362-.042 2.046 0 .592.021 1.277.042 1.869h-.658c0-1.233-.175-1.475-1.232-1.475-1.014 0-1.61.021-2.114.045 0 1.275-.021 2.707.043 3.85.395.066.859.133 1.388.133 1.055 0 2.111-.067 2.971-.222.131-.461.153-.923.218-1.756h.616c.044 1.054.134 1.889.265 2.637-.703.11-1.782.175-2.664.175-.789 0-1.604-.044-2.399-.086-.789-.045-1.583-.089-2.396-.089-.767 0-1.384.044-2.065.065v-.594c1.65 0 2.045-.088 2.045-1.538z" transform="translate(415.8691 260.3546)"/><path d="m0 0c0-.549-.018-.66-.11-.9-.129-.396-1.384-.771-3.082-.771-4.528 0-7.081 3.146-7.081 7.526 0 3.914 2.178 6.662 6.358 6.662 1.433 0 2.374-.152 3.082-.393 1.032-.377 1.824-.729 1.824-1.762v-1.164h.68c0 1.141.178 2.308.44 3.343-1.01.286-2.726.899-5.453.899-5.302 0-9.283-3.123-9.283-7.96 0-5.523 3.962-8.074 8.865-8.074 1.517 0 3.892.571 5.784 1.123v3.694c0 .636 0 .725.242.813l.639.219-.086.551c-.905-.021-1.802-.045-2.708-.045-.879 0-1.782.024-2.684.045v-.66l1.823-.154c.578-.044.75-.264.75-.769z" transform="translate(443.3259 260.1329)"/><path d="m0 0c1.01.022 2 .064 2.991.064 1.607 0 2.379-.042 2.902-.064v.615c-1.67 0-1.934.044-1.934 1.077v8.14c.395.176.927.222 1.411.222 1.583 0 2.329-.638 2.329-2.068 0-1.322-1.014-2.288-2.329-2.288-.31 0-.553.021-.793.043l-.089-.351 4.396-5.326h2.729v.551c-.681 0-.857.175-1.298.705l-3.362 4.115c1.051.395 2.946.921 2.946 2.968 0 1.828-1.45 2.375-3.409 2.375-1.164 0-2.442-.065-3.588-.065-1.056 0-1.956.065-2.902.065v-.616c1.804 0 1.978-.154 1.978-1.298v-6.906c0-1.299-.398-1.343-1.978-1.343z" transform="translate(448.3468 257.9125)"/><path d="m0 0c2.728 0 3.872-2.286 3.872-5.016 0-2.112-.658-4.618-3.253-4.618-3.086 0-4.004 2.859-4.004 5.277 0 2.773 1.492 4.357 3.385 4.357m.42.747c-3.193 0-6.007-1.979-6.007-5.763 0-3.52 3.035-5.499 5.678-5.499 3.736 0 5.982 3.036 5.982 6.006 0 2.705-1.871 5.256-5.653 5.256" transform="translate(466.6736 268.185)"/><path d="m0 0c0 .636.263.877 1.673.923v.571c-1.276-.022-1.981-.066-2.681-.066-.929 0-1.872.044-2.819.066v-.617c1.278 0 1.85-.107 1.85-1.098v-5.147c0-2.661.834-4.159 4.486-4.159 3.694 0 4.335 2.089 4.335 4.356v4.73c0 1.164.282 1.318 1.871 1.318v.617c-.574-.022-1.3-.066-2.271-.066-.767 0-1.559.044-2.35.066v-.617c1.713 0 1.87-.196 1.87-1.405v-4.755c0-2.24-1.079-3.101-2.994-3.101-2.265 0-2.97 1.167-2.97 3.059z" transform="translate(477.5956 267.1971)"/><path d="m0 0c0-1.012-.396-1.343-1.979-1.343v-.615c1.012.022 2.002.064 2.991.064 1.604 0 2.375-.042 2.904-.064v.615c-1.673.088-1.937.331-1.937 1.343v7.918c.375.111.792.265 1.365.265 1.322 0 2.376-.836 2.376-2.155 0-1.368-.66-2.288-2.199-2.288-.265 0-.53.065-.706.174l.131-.659c.199-.088.575-.178.97-.178 2.638 0 3.868 1.741 3.868 3.216 0 1.494-.746 2.637-3.713 2.637-.572 0-1.145-.044-1.695-.086-.551-.046-1.076-.089-1.65-.089-.904 0-2.089.043-2.705.065v-.617c1.801 0 1.979-.153 1.979-1.297z" transform="translate(489.8446 259.8708)"/></g><path d="m59.417856 201.6277h76.200004v-.27975h-76.200004z"/><path d="m59.417856 212.15883h76.200004v-.27976h-76.200004z"/></g><g clip-path="url(#a)" transform="matrix(.35277777 0 0 -.35277777 -42.182144 300.15395)"><path d="m0 0v-1.901c-.34-.081-.558-.114-.817-.114-1.238 0-1.95.761-1.95 2.08 0 1.229.72 1.982 1.901 1.982.47 0 1.011-.146 1.343-.356.113-.073.137-.089.161-.089.008 0 .025.008.049.016l.145.081c.033.016.049.04.049.057v.032l-.032.517c0 .105-.009.13-.081.162-.227.097-1.027.218-1.488.218-1.91 0-3.227-1.124-3.227-2.758 0-.874.38-1.634 1.042-2.087.486-.323 1.117-.484 1.918-.484.663 0 1.359.096 2.11.282v2.362zm2.923 2.58v-5.127h3.501v.678h-2.378v4.449zm7.346.097c-.825 0-1.472-.21-2.087-.679-.646-.493-.986-1.189-.986-2.022 0-.785.323-1.513.873-1.982.493-.42 1.173-.646 1.974-.646 1.828 0 3.065 1.091 3.065 2.701 0 1.577-1.132 2.628-2.839 2.628m-.21-.638c1.1 0 1.869-.874 1.869-2.136 0-.672-.21-1.181-.631-1.537-.3-.243-.68-.381-1.068-.381-1.068 0-1.853.882-1.853 2.096 0 1.157.688 1.958 1.683 1.958m4.633-4.586h1.997c1.319 0 2.143.605 2.143 1.576 0 .721-.428 1.222-1.188 1.391.59.259.864.599.864 1.077 0 .372-.202.695-.549.889-.307.17-.695.234-1.343.234-.121 0-.396-.008-.753-.016-.323-.008-.444-.008-1.171-.024zm1.107 3.056v1.506c.154.008.17.008.315.008.122.008.219.008.267.008.688 0 .947-.203.947-.737 0-.275-.081-.477-.242-.607-.17-.137-.373-.178-.907-.178zm0-.589h.388c.551 0 .874-.049 1.069-.154.258-.154.396-.421.396-.793 0-.623-.364-.907-1.165-.907-.089 0-.632 0-.688.008zm6.387 2.66-2.451-5.127h.987l.614 1.528h1.99l.566-1.528h1.238l-2.111 5.127zm.906-2.993h-1.505l.785 1.942zm3.341 2.993v-5.127h3.501v.678h-2.378v4.449zm8.557 0-2.451-5.127h.987l.614 1.528h1.99l.566-1.528h1.238l-2.111 5.127zm.906-2.993h-1.505l.785 1.942zm3.341 2.993v-5.127h3.501v.678h-2.378v4.449zm3.389 0v-.679h2.014v-4.448h1.124v4.448h2.014v.679zm6.358 0v-5.127h3.817v.678h-2.694v1.7h2.33v.638h-2.33v1.473h2.605v.638zm5.295-5.128h1.123v2.16c.114-.008.179-.008.268-.008.161 0 .267.008.412.016.356-.728.567-1.116.793-1.432.421-.583.874-.832 1.488-.832.388 0 .606.056.631.16l.081.324-.025.041c-.639-.049-1.132.469-1.843 1.941.792.234 1.204.703 1.204 1.375 0 .502-.21.882-.638 1.149-.339.21-.72.274-1.569.274 0 0-.64-.016-1.925-.04zm1.123 4.546c.324.008.365.008.583.008.405 0 .591-.024.753-.089.324-.121.493-.388.493-.785 0-.655-.388-.955-1.238-.955-.064 0-.162 0-.591.017zm4.898.582-.033-5.128h.809l-.065 3.664 3.454-3.777.663.169.009 5.072h-.809l.064-3.599-3.283 3.599zm8.598 0-2.45-5.127h.986l.615 1.528h1.99l.566-1.528h1.238l-2.111 5.127zm.906-2.993h-1.504l.784 1.942zm2.086 2.993v-.679h2.014v-4.448h1.123v4.448h2.014v.679zm6.358-5.127h1.123v5.127h-1.123zm2.42 5.127 2.086-5.127h.801l2.435 5.127h-1.003l-1.618-3.939-1.456 3.939zm6.502 0v-5.127h3.816v.678h-2.693v1.7h2.329v.638h-2.329v1.473h2.604v.638zm9.155 0-2.451-5.127h.987l.615 1.528h1.989l.567-1.528h1.237l-2.111 5.127zm.906-2.993h-1.505l.785 1.942zm6.517 2.791c-.016.081-.024.105-.081.129-.177.081-.808.17-1.188.17-1.238 0-2.062-.598-2.062-1.496 0-.348.137-.696.371-.922.243-.227.525-.388 1.205-.688.858-.364 1.004-.485 1.004-.841 0-.429-.364-.704-.931-.704-.445 0-.987.178-1.407.469-.016.016-.04.024-.049.024-.008 0-.032-.008-.056-.024l-.194-.105c-.041-.024-.049-.032-.049-.065 0-.008 0-.048.008-.073l.065-.557c.008-.097.024-.105.121-.138.308-.104 1.043-.201 1.464-.201 1.165 0 2.046.686 2.046 1.6 0 .348-.146.68-.388.906-.234.219-.355.292-1.1.632-.542.242-.72.331-.874.445-.137.097-.218.258-.218.453 0 .404.332.647.874.647.348 0 .777-.122 1.043-.3.13-.089.13-.089.154-.089.016 0 .016 0 .064.025l.186.097c.049.024.057.032.057.056l-.008.073zm4.891 0c-.016.081-.024.105-.08.129-.178.081-.809.17-1.189.17-1.238 0-2.062-.598-2.062-1.496 0-.348.137-.696.371-.922.243-.227.526-.388 1.205-.688.858-.364 1.004-.485 1.004-.841 0-.429-.364-.704-.931-.704-.445 0-.987.178-1.407.469-.016.016-.04.024-.048.024-.009 0-.033-.008-.057-.024l-.194-.105c-.04-.024-.049-.032-.049-.065 0-.008 0-.048.009-.073l.064-.557c.008-.097.025-.105.121-.138.308-.104 1.043-.201 1.464-.201 1.165 0 2.046.686 2.046 1.6 0 .348-.146.68-.388.906-.234.219-.355.292-1.1.632-.542.242-.72.331-.874.445-.137.097-.218.258-.218.453 0 .404.332.647.874.647.348 0 .777-.122 1.043-.3.13-.089.13-.089.154-.089.016 0 .016 0 .065.025l.185.097c.049.024.057.032.057.056l-.008.073zm1.818.202v-5.127h3.816v.678h-2.693v1.7h2.329v.638h-2.329v1.473h2.604v.638zm4.745 0v-.679h2.014v-4.448h1.123v4.448h2.014v.679zm8.419 0-.347-5.127h.825l.056 3.769 1.788-3.737.509.08 1.853 3.503.121-3.615h1.084l-.186 5.127h-1.027l-1.885-3.688-1.779 3.688zm9.601 0-2.45-5.127h.986l.615 1.528h1.99l.566-1.528h1.238l-2.111 5.127zm.906-2.993h-1.504l.784 1.942zm3.364 2.993-.032-5.128h.809l-.065 3.664 3.454-3.777.663.169.008 5.072h-.809l.065-3.599-3.284 3.599zm8.599 0-2.451-5.127h.987l.615 1.528h1.989l.567-1.528h1.237l-2.111 5.127zm.906-2.993h-1.505l.785 1.942zm6.757.413v-1.901c-.339-.081-.558-.114-.817-.114-1.238 0-1.95.761-1.95 2.08 0 1.229.72 1.982 1.902 1.982.469 0 1.011-.146 1.342-.356.113-.073.138-.089.162-.089.008 0 .024.008.048.016l.146.081c.032.016.048.04.048.057v.032l-.032.517c0 .105-.008.13-.081.162-.226.097-1.027.218-1.488.218-1.909 0-3.227-1.124-3.227-2.758 0-.874.38-1.634 1.043-2.087.485-.323 1.116-.484 1.917-.484.664 0 1.359.096 2.111.282v2.362zm2.923 2.58v-5.127h3.817v.678h-2.693v1.7h2.329v.638h-2.329v1.473h2.604v.638zm5.447 0-.348-5.127h.825l.056 3.769 1.788-3.737.51.08 1.852 3.503.121-3.615h1.084l-.186 5.127h-1.027l-1.885-3.688-1.779 3.688zm7.733 0v-5.127h3.816v.678h-2.693v1.7h2.329v.638h-2.329v1.473h2.604v.638zm5.318 0-.032-5.128h.808l-.064 3.664 3.453-3.777.664.169.008 5.072h-.809l.065-3.599-3.284 3.599zm6.059 0v-.679h2.014v-4.448h1.124v4.448h2.014v.679z" fill="#00538e" transform="translate(304.3953 237.6045)"/></g></g></svg>